<svg xmlns="http://www.w3.org/2000/svg" width="52.905" height="69.051" viewBox="0 0 52.905 69.051"><g transform="translate(21.911 12.686)"><path d="M228.022,94.063h-4.613a1.081,1.081,0,0,0,0,2.162h4.613a1.081,1.081,0,0,0,0-2.162Z" transform="translate(-222.328 -94.063)"/></g><g transform="translate(10.379 12.686)"><path d="M144.819,94.063H137.9a1.081,1.081,0,0,0,0,2.162h6.92a1.081,1.081,0,1,0,0-2.162Z" transform="translate(-136.818 -94.063)"/></g><g transform="translate(24.218 8.073)"><path d="M242.818,59.858h-2.307a1.081,1.081,0,1,0,0,2.162h2.307a1.081,1.081,0,0,0,0-2.162Z" transform="translate(-239.43 -59.858)"/></g><g transform="translate(17.299 8.073)"><path d="M191.516,59.858H189.21a1.081,1.081,0,0,0,0,2.162h2.306a1.081,1.081,0,1,0,0-2.162Z" transform="translate(-188.129 -59.858)"/></g><g transform="translate(10.379 8.073)"><path d="M140.207,59.858H137.9a1.081,1.081,0,1,0,0,2.162h2.307a1.081,1.081,0,0,0,0-2.162Z" transform="translate(-136.819 -59.858)"/></g><g transform="translate(0 0)"><path d="M110.53,29.985h-11.6V14.92a5.7,5.7,0,0,0-5.694-5.694h-.072V1.081A1.081,1.081,0,0,0,91.708.065l-2.8,1.019L86.1.065a1.082,1.082,0,0,0-.739,0l-2.8,1.019L79.762.065a1.082,1.082,0,0,0-.739,0l-2.8,1.019L73.419.065a1.082,1.082,0,0,0-.739,0l-2.8,1.019L67.076.065a1.081,1.081,0,0,0-1.451,1.016V9.226h-.072a5.7,5.7,0,0,0-5.694,5.694V63.356a5.7,5.7,0,0,0,5.694,5.694H93.231a5.7,5.7,0,0,0,5.59-4.613H110.53a2.237,2.237,0,0,0,2.234-2.234V32.219A2.237,2.237,0,0,0,110.53,29.985ZM67.787,2.625l1.721.626a1.082,1.082,0,0,0,.739,0l2.8-1.019,2.8,1.019a1.082,1.082,0,0,0,.739,0l2.8-1.019,2.8,1.019a1.082,1.082,0,0,0,.739,0l2.8-1.019,2.8,1.019a1.082,1.082,0,0,0,.739,0L91,2.625V17.3H67.787ZM96.763,63.357a3.536,3.536,0,0,1-3.532,3.532H65.553a3.536,3.536,0,0,1-3.532-3.532V14.92a3.536,3.536,0,0,1,3.532-3.532h.072V17.3h-.072a1.081,1.081,0,0,0,0,2.162H93.231a1.081,1.081,0,0,0,0-2.162h-.072v-5.91h.072a3.536,3.536,0,0,1,3.532,3.532Zm4.613-1.081H98.925V32.147h2.451ZM110.6,62.2a.072.072,0,0,1-.072.072h-2.379V40.292a1.081,1.081,0,0,0-2.162,0V62.275h-2.451V32.147h2.451v3.531a1.081,1.081,0,0,0,2.162,0V32.147h2.379a.072.072,0,0,1,.072.072Z" transform="translate(-59.859 0)"/></g><g transform="translate(15.569 39.21)"><path d="M179.84,290.739h-1.153a3.388,3.388,0,1,0,0,6.775h1.153a3.388,3.388,0,0,0,0-6.775Zm0,4.613h-1.153a1.225,1.225,0,0,1,0-2.451h1.153a1.225,1.225,0,0,1,0,2.451Z" transform="translate(-175.299 -290.739)"/></g><g transform="translate(15.569 48.436)"><path d="M179.84,359.148h-1.153a3.388,3.388,0,0,0,0,6.775h1.153a3.388,3.388,0,0,0,0-6.775Zm0,4.613h-1.153a1.225,1.225,0,0,1,0-2.451h1.153a1.225,1.225,0,0,1,0,2.451Z" transform="translate(-175.299 -359.148)"/></g><g transform="translate(15.569 57.663)"><path d="M179.84,427.558h-1.153a3.388,3.388,0,0,0,0,6.775h1.153a3.388,3.388,0,0,0,0-6.775Zm0,4.613h-1.153a1.225,1.225,0,1,1,0-2.451h1.153a1.225,1.225,0,1,1,0,2.451Z" transform="translate(-175.299 -427.558)"/></g><g transform="translate(25.948 39.21)"><path d="M256.8,290.739h-1.153a3.388,3.388,0,1,0,0,6.775H256.8a3.388,3.388,0,0,0,0-6.775Zm0,4.613h-1.153a1.225,1.225,0,1,1,0-2.451H256.8a1.225,1.225,0,0,1,0,2.451Z" transform="translate(-252.259 -290.739)"/></g><g transform="translate(25.948 48.436)"><path d="M256.8,359.148h-1.153a3.388,3.388,0,1,0,0,6.775H256.8a3.388,3.388,0,0,0,0-6.775Zm0,4.613h-1.153a1.225,1.225,0,0,1,0-2.451H256.8a1.225,1.225,0,0,1,0,2.451Z" transform="translate(-252.259 -359.148)"/></g><g transform="translate(25.948 57.663)"><path d="M256.8,427.558h-1.153a3.388,3.388,0,1,0,0,6.775H256.8a3.388,3.388,0,0,0,0-6.775Zm0,4.613h-1.153a1.225,1.225,0,1,1,0-2.451H256.8a1.225,1.225,0,0,1,0,2.451Z" transform="translate(-252.259 -427.558)"/></g><g transform="translate(5.189 39.21)"><path d="M102.879,290.739h-1.153a3.388,3.388,0,1,0,0,6.775h1.153a3.388,3.388,0,1,0,0-6.775Zm0,4.613h-1.153a1.225,1.225,0,1,1,0-2.451h1.153a1.225,1.225,0,1,1,0,2.451Z" transform="translate(-98.338 -290.739)"/></g><g transform="translate(5.189 48.436)"><path d="M102.879,359.148h-1.153a3.388,3.388,0,1,0,0,6.775h1.153a3.388,3.388,0,0,0,0-6.775Zm0,4.613h-1.153a1.225,1.225,0,0,1,0-2.451h1.153a1.225,1.225,0,0,1,0,2.451Z" transform="translate(-98.338 -359.148)"/></g><g transform="translate(5.189 57.663)"><path d="M102.879,427.558h-1.153a3.388,3.388,0,1,0,0,6.775h1.153a3.388,3.388,0,1,0,0-6.775Zm0,4.613h-1.153a1.225,1.225,0,1,1,0-2.451h1.153a1.225,1.225,0,1,1,0,2.451Z" transform="translate(-98.338 -427.558)"/></g><g transform="translate(4.613 21.912)"><path d="M121.669,162.472H96.3a2.237,2.237,0,0,0-2.234,2.234v10.379A2.237,2.237,0,0,0,96.3,177.32h25.371a2.237,2.237,0,0,0,2.234-2.234V164.706A2.237,2.237,0,0,0,121.669,162.472Zm.072,12.614a.072.072,0,0,1-.072.072H96.3a.072.072,0,0,1-.072-.072V164.706a.072.072,0,0,1,.072-.072h25.371a.072.072,0,0,1,.072.072v10.379Z" transform="translate(-94.063 -162.472)"/></g></svg>