<svg xmlns="http://www.w3.org/2000/svg" width="35.244" height="46" viewBox="0 0 35.244 46"><g transform="translate(14.597 8.451)"><path d="M226.121,94.063h-3.073a.72.72,0,0,0,0,1.441h3.073a.72.72,0,0,0,0-1.441Z" transform="translate(-222.328 -94.063)"/></g><g transform="translate(6.914 8.451)"><path d="M142.148,94.063h-4.61a.72.72,0,0,0,0,1.441h4.61a.72.72,0,1,0,0-1.441Z" transform="translate(-136.818 -94.063)"/></g><g transform="translate(16.133 5.378)"><path d="M241.687,59.858H240.15a.72.72,0,1,0,0,1.441h1.537a.72.72,0,0,0,0-1.441Z" transform="translate(-239.43 -59.858)"/></g><g transform="translate(11.524 5.378)"><path d="M190.385,59.858h-1.536a.72.72,0,0,0,0,1.441h1.536a.72.72,0,1,0,0-1.441Z" transform="translate(-188.129 -59.858)"/></g><g transform="translate(6.914 5.378)"><path d="M139.076,59.858h-1.537a.72.72,0,0,0,0,1.441h1.537a.72.72,0,0,0,0-1.441Z" transform="translate(-136.819 -59.858)"/></g><g transform="translate(0 0)"><path d="M93.615,19.975H85.884V9.94a3.8,3.8,0,0,0-3.793-3.793h-.048V.72a.72.72,0,0,0-.966-.677L79.21.722,77.343.043a.721.721,0,0,0-.492,0L74.984.722,73.118.043a.721.721,0,0,0-.492,0L70.759.722,68.892.043a.721.721,0,0,0-.492,0L66.533.722,64.667.043A.72.72,0,0,0,63.7.72V6.146h-.048a3.8,3.8,0,0,0-3.793,3.793V42.207A3.8,3.8,0,0,0,63.652,46H82.091a3.8,3.8,0,0,0,3.724-3.073h7.8A1.49,1.49,0,0,0,95.1,41.438V21.463A1.49,1.49,0,0,0,93.615,19.975ZM65.141,1.749l1.146.417a.721.721,0,0,0,.492,0l1.867-.679,1.867.679a.721.721,0,0,0,.492,0l1.867-.679,1.867.679a.721.721,0,0,0,.492,0L77.1,1.487l1.867.679a.721.721,0,0,0,.492,0L80.6,1.749v9.775H65.141Zm19.3,40.458a2.356,2.356,0,0,1-2.353,2.353H63.652A2.356,2.356,0,0,1,61.3,42.207V9.94a2.356,2.356,0,0,1,2.353-2.353H63.7v3.937h-.048a.72.72,0,0,0,0,1.441H82.091a.72.72,0,0,0,0-1.441h-.048V7.587h.048A2.356,2.356,0,0,1,84.444,9.94Zm3.073-.72H85.884V21.416h1.633Zm6.146-.048a.048.048,0,0,1-.048.048H92.03V26.841a.72.72,0,0,0-1.441,0V41.487H88.957V21.416H90.59v2.353a.72.72,0,0,0,1.441,0V21.416h1.585a.048.048,0,0,1,.048.048Z" transform="translate(-59.859 0)"/></g><g transform="translate(10.372 26.121)"><path d="M178.324,290.739h-.768a2.257,2.257,0,1,0,0,4.514h.768a2.257,2.257,0,1,0,0-4.514Zm0,3.073h-.768a.816.816,0,0,1,0-1.633h.768a.816.816,0,0,1,0,1.633Z" transform="translate(-175.299 -290.739)"/></g><g transform="translate(10.372 32.267)"><path d="M178.324,359.148h-.768a2.257,2.257,0,0,0,0,4.514h.768a2.257,2.257,0,0,0,0-4.514Zm0,3.073h-.768a.816.816,0,0,1,0-1.633h.768a.816.816,0,0,1,0,1.633Z" transform="translate(-175.299 -359.148)"/></g><g transform="translate(10.372 38.414)"><path d="M178.324,427.558h-.768a2.257,2.257,0,0,0,0,4.514h.768a2.257,2.257,0,0,0,0-4.514Zm0,3.073h-.768a.816.816,0,1,1,0-1.633h.768a.816.816,0,1,1,0,1.633Z" transform="translate(-175.299 -427.558)"/></g><g transform="translate(17.286 26.121)"><path d="M255.284,290.739h-.768a2.257,2.257,0,1,0,0,4.514h.768a2.257,2.257,0,0,0,0-4.514Zm0,3.073h-.768a.816.816,0,0,1,0-1.633h.768a.816.816,0,0,1,0,1.633Z" transform="translate(-252.259 -290.739)"/></g><g transform="translate(17.286 32.267)"><path d="M255.284,359.148h-.768a2.257,2.257,0,1,0,0,4.514h.768a2.257,2.257,0,0,0,0-4.514Zm0,3.073h-.768a.816.816,0,0,1,0-1.633h.768a.816.816,0,0,1,0,1.633Z" transform="translate(-252.259 -359.148)"/></g><g transform="translate(17.286 38.414)"><path d="M255.284,427.558h-.768a2.257,2.257,0,1,0,0,4.514h.768a2.257,2.257,0,0,0,0-4.514Zm0,3.073h-.768a.816.816,0,1,1,0-1.633h.768a.816.816,0,0,1,0,1.633Z" transform="translate(-252.259 -427.558)"/></g><g transform="translate(3.457 26.121)"><path d="M101.363,290.739h-.768a2.257,2.257,0,1,0,0,4.514h.768a2.257,2.257,0,1,0,0-4.514Zm0,3.073h-.768a.816.816,0,0,1,0-1.633h.768a.816.816,0,0,1,0,1.633Z" transform="translate(-98.338 -290.739)"/></g><g transform="translate(3.457 32.267)"><path d="M101.363,359.148h-.768a2.257,2.257,0,0,0,0,4.514h.768a2.257,2.257,0,0,0,0-4.514Zm0,3.073h-.768a.816.816,0,0,1,0-1.633h.768a.816.816,0,0,1,0,1.633Z" transform="translate(-98.338 -359.148)"/></g><g transform="translate(3.457 38.414)"><path d="M101.363,427.558h-.768a2.257,2.257,0,0,0,0,4.514h.768a2.257,2.257,0,0,0,0-4.514Zm0,3.073h-.768a.816.816,0,1,1,0-1.633h.768a.816.816,0,1,1,0,1.633Z" transform="translate(-98.338 -427.558)"/></g><g transform="translate(3.073 14.597)"><path d="M112.453,162.472h-16.9a1.49,1.49,0,0,0-1.489,1.489v6.914a1.49,1.49,0,0,0,1.489,1.489h16.9a1.49,1.49,0,0,0,1.489-1.489v-6.914A1.49,1.49,0,0,0,112.453,162.472Zm.048,8.4a.048.048,0,0,1-.048.048h-16.9a.048.048,0,0,1-.048-.048v-6.914a.048.048,0,0,1,.048-.048h16.9a.048.048,0,0,1,.048.048Z" transform="translate(-94.063 -162.472)"/></g></svg>