<svg xmlns="http://www.w3.org/2000/svg" width="38.612" height="21.752" viewBox="0 0 38.612 21.752"><defs><style>.a{fill:#f5f6f7;}</style></defs><path class="a" d="M38.134,88.163H3.06a.478.478,0,0,0-.478.478v.813H1.769a.478.478,0,0,0-.478.478v.812H.478A.478.478,0,0,0,0,91.223v18.215a.478.478,0,0,0,.478.478H23.015a.478.478,0,1,0,0-.956H4.753a4.087,4.087,0,0,0-2.711-3.534.478.478,0,1,0-.318.9,3.128,3.128,0,0,1,2.067,2.632H.956V95.336A4.086,4.086,0,0,0,4.742,91.7H6.073a.478.478,0,0,0,0-.956H2.247V90.41H32.694q.018.169.049.334H16.816a.478.478,0,0,0,0,.956H31.4a4.111,4.111,0,0,0,2.873,3.471.478.478,0,0,0,.277-.915A3.146,3.146,0,0,1,32.368,91.7h2.706v13.512a4.035,4.035,0,0,0-1.263.328.478.478,0,1,0,.386.875,3.086,3.086,0,0,1,.877-.241v1.968s0,0,0,0,0,0,0,0v.808H32.352a3.131,3.131,0,0,1,1.015-2,.478.478,0,0,0-.641-.71,4.088,4.088,0,0,0-1.333,2.714H24.558a.478.478,0,0,0,0,.956H35.553a.478.478,0,0,0,.478-.478v-.812h.812a.478.478,0,0,0,.478-.478v-.813h.813a.478.478,0,0,0,.478-.478V88.641A.478.478,0,0,0,38.134,88.163ZM.956,94.377V91.7H3.778A3.129,3.129,0,0,1,.956,94.377Zm35.075-.458.169.015.165.015v9.974q-.168.016-.334.045Zm1.29-1.286.1.01.233.024v9.964q-.169.016-.335.045Zm.335-.927-.138-.014-.2-.02v-1.74a.478.478,0,0,0-.478-.478H35.014a3.063,3.063,0,0,1-.066-.335h2.708ZM3.538,89.119H33.985q.018.169.05.335H3.538Zm30.185,1.625a3.057,3.057,0,0,1-.066-.334h2.708v2.579l-.081-.007-.253-.023V91.223a.478.478,0,0,0-.478-.478Zm2.642,16.924h-.334v-2.724a3.086,3.086,0,0,1,.334-.06Zm.956-1.291v-2.724a3.067,3.067,0,0,1,.335-.06v2.785Z" transform="translate(0 -88.163)"/><path class="a" d="M102.244,115.16H96.606a.478.478,0,0,0,0,.956h5.638a.478.478,0,0,0,0-.956Z" transform="translate(-86.936 -112.579)"/><path class="a" d="M75.75,115.16a.478.478,0,0,0,0,.956h.534a.478.478,0,1,0,0-.956Z" transform="translate(-68.075 -112.579)"/><path class="a" d="M141.7,146.613a5.463,5.463,0,0,0-4.9,3.746.478.478,0,1,0,.887.358,4.533,4.533,0,0,1,4.017-3.148,4.343,4.343,0,0,1,3.695,2.468.478.478,0,1,0,.838-.461A5.279,5.279,0,0,0,141.7,146.613Z" transform="translate(-123.683 -141.024)"/><path class="a" d="M136.557,209.32c3.023,0,5.482-3.046,5.482-6.789,0-.168-.005-.339-.015-.507a.478.478,0,1,0-.955.057c.009.149.013.3.013.45,0,3.216-2.03,5.833-4.526,5.833s-4.526-2.617-4.526-5.833a7.508,7.508,0,0,1,.073-1.049.478.478,0,1,0-.947-.134,8.475,8.475,0,0,0-.083,1.183C131.075,206.274,133.534,209.32,136.557,209.32Z" transform="translate(-118.542 -190.153)"/><path class="a" d="M232.158,189.113c.037.12.072.244.1.367a.478.478,0,1,0,.927-.233c-.035-.141-.075-.281-.118-.418a.478.478,0,1,0-.913.284Z" transform="translate(-209.939 -178.899)"/><path class="a" d="M160.621,175.536l.046,0a.453.453,0,0,0,.453-.453v-.3a3.631,3.631,0,0,0,1.725-.69,2.258,2.258,0,0,0,.931-1.823,2.446,2.446,0,0,0-.064-.534c-.311-1.411-1.655-1.6-2.593-1.7v-2.984a2.106,2.106,0,0,1,1.185.559,1.436,1.436,0,0,1,.333.657.441.441,0,0,0,.437.39.453.453,0,0,0,.085-.008l.024,0a.441.441,0,0,0,.357-.477l-.007-.057a2.566,2.566,0,0,0-2.414-1.973v-.209a.464.464,0,0,0-.407-.463.453.453,0,0,0-.5.451v.227a3.112,3.112,0,0,0-2.071,1.074,2.364,2.364,0,0,0-.448,1.568c.173,1.543,1.42,1.926,2.52,2.073v1.281a.453.453,0,0,0,.906,0v-1.182c.989.122,1.555.326,1.7.985a1.447,1.447,0,0,1,.036.33c0,.928-.857,1.465-1.74,1.6v-.6a.453.453,0,1,0-.906,0v.6a2.032,2.032,0,0,1-1.644-1.249s-.006-.024-.022-.132a.471.471,0,0,0-.469-.407.461.461,0,0,0-.446.518c.018.141.025.184.03.206a2.852,2.852,0,0,0,2.55,1.979v.283A.464.464,0,0,0,160.621,175.536Zm-.407-8.473v2.886c-.955-.14-1.523-.4-1.605-1.226a1.375,1.375,0,0,1,.261-.952A2.06,2.06,0,0,1,160.214,167.063Z" transform="translate(-142.557 -158.077)"/></svg>